<?xml version="1.0" encoding="iso-8859-1"?>
<!-- Generator: Adobe Illustrator 17.1.0, SVG Export Plug-In . SVG Version: 6.00 Build 0)  -->
<!DOCTYPE svg PUBLIC "-//W3C//DTD SVG 1.1//EN" "http://www.w3.org/Graphics/SVG/1.1/DTD/svg11.dtd">
<svg version="1.1" id="Capa_1" xmlns="http://www.w3.org/2000/svg" xmlns:xlink="http://www.w3.org/1999/xlink" x="0px" y="0px"
	 viewBox="0 0 295.604 295.604" style="enable-background:new 0 0 295.604 295.604;" xml:space="preserve">
<g>
	<path d="M265.937,94.98h-68.327c-2.424,19.732-12.289,37.804-27.902,50.606c-1.487,1.22-3.283,1.813-5.067,1.813
		c-2.314,0-4.609-0.998-6.191-2.928c-2.801-3.416-2.303-8.457,1.114-11.259c14.387-11.797,22.639-29.221,22.639-47.804
		c0-34.068-27.716-61.785-61.783-61.785c-31.873,0-58.182,24.26-61.441,55.283c-3.953,2.287-7.626,5.008-10.93,8.157
		c-1.22,1.163-2.361,2.364-3.445,3.591c-13.82,15.65-16.857,36.116-16.857,51.041c0,6.395,0.17,12.796,0.335,18.987
		c0.493,18.569,1.107,41.68-5.024,47.977c-0.475,0.486-1.917,1.968-7.055,1.968c-8.837,0-16,7.163-16,16c0,8.837,7.163,16,16,16
		c12.37,0,22.457-3.917,29.98-11.643c10.047-10.317,13.303-25.156,14.148-42.017c1.896,0.056,3.912,0.091,6.038,0.091
		c15.958,0,37.519-1.92,54.603-10.49c0,0-1.167,7.399-1.167,9.491v63.672c0,11.379,10.748,20.248,22.143,20.248h0.304
		c11.396,0,20.553-8.869,20.553-20.248V218.98h76v33.012c0,11.234,9.44,19.988,20.676,19.988h0.314
		c11.235,0,20.01-8.754,20.01-19.988v-36.479c10-5.031,16-15.023,16-26.533v-64C295.604,108.411,282.505,94.98,265.937,94.98z
		 M58.995,141.23c0-4.168,3.377-7.547,7.545-7.547s7.546,3.379,7.546,7.547c0,4.166-3.378,7.545-7.546,7.545
		S58.995,145.396,58.995,141.23z"/>
</g>
<g>
</g>
<g>
</g>
<g>
</g>
<g>
</g>
<g>
</g>
<g>
</g>
<g>
</g>
<g>
</g>
<g>
</g>
<g>
</g>
<g>
</g>
<g>
</g>
<g>
</g>
<g>
</g>
<g>
</g>
</svg>
