<?xml version="1.0" encoding="iso-8859-1"?>
<!-- Generator: Adobe Illustrator 18.0.0, SVG Export Plug-In . SVG Version: 6.00 Build 0)  -->
<!DOCTYPE svg PUBLIC "-//W3C//DTD SVG 1.1//EN" "http://www.w3.org/Graphics/SVG/1.1/DTD/svg11.dtd">
<svg version="1.1" id="Capa_1" xmlns="http://www.w3.org/2000/svg" xmlns:xlink="http://www.w3.org/1999/xlink" x="0px" y="0px"
	 viewBox="0 0 451.853 451.853" style="enable-background:new 0 0 451.853 451.853;" xml:space="preserve">
<path id="XMLID_1208_" d="M443.466,53.031l2.989-2.989c1.599-1.599,2.9-3.494,3.665-5.622c2.039-5.671,0.537-11.745-3.487-15.769
	L423.201,5.22c-5.857-5.858-15.355-5.858-21.213,0l-3.166,3.167l-3.993-3.993c-5.858-5.858-15.355-5.858-21.213,0v0
	c-5.858,5.858-5.858,15.355,0,21.213l3.993,3.993l-20.037,20.037l-3.993-3.993c-5.858-5.858-15.355-5.858-21.213,0l0,0
	c-5.858,5.858-5.858,15.355,0,21.213l3.993,3.993l-76.719,76.719c-10.638-4.999-22.13-7.89-33.92-8.373
	c-22.852-0.932-44.05,7.152-59.674,22.777c-5.331,5.33-9.838,11.391-13.398,18.015c-7.26,13.509-21.305,21.898-36.658,21.898
	c-0.028,0.001-0.053-0.001-0.081,0c-31.59,0-60.882,11.894-82.481,33.492c-46.953,46.952-44.094,126.209,6.373,176.676
	c26.429,26.429,60.751,39.801,94.197,39.801c30.42,0,60.115-11.063,82.479-33.428c21.613-21.612,33.507-50.926,33.492-82.54
	c-0.007-15.362,8.384-29.416,21.899-36.68c6.622-3.559,12.682-8.066,18.014-13.397c24.558-24.558,29.122-62.034,14.374-93.565
	l76.749-76.749l3.993,3.993c5.858,5.858,15.355,5.858,21.213,0l0,0c5.858-5.858,5.858-15.355,0-21.213l-3.993-3.993l20.036-20.036
	l3.993,3.993c5.858,5.858,15.355,5.858,21.213,0l0,0c5.858-5.858,5.858-15.355,0-21.213L443.466,53.031z M138.078,387.618
	l-73.843-73.844l21.213-21.213l73.843,73.844L138.078,387.618z M227.522,274.533L227.522,274.533
	c-13.839,13.838-36.36,13.843-50.203,0c-13.841-13.841-13.841-36.362,0-50.202c13.871-13.873,36.328-13.875,50.202,0
	C241.362,238.172,241.362,260.692,227.522,274.533z"/>
<g>
</g>
<g>
</g>
<g>
</g>
<g>
</g>
<g>
</g>
<g>
</g>
<g>
</g>
<g>
</g>
<g>
</g>
<g>
</g>
<g>
</g>
<g>
</g>
<g>
</g>
<g>
</g>
<g>
</g>
</svg>
